<?xml version="1.0" encoding="UTF-8"?>
<!DOCTYPE svg PUBLIC "-//W3C//DTD SVG 1.1//EN" "http://www.w3.org/Graphics/SVG/1.1/DTD/svg11.dtd">
<svg width="368mm" height="175mm" viewBox="0 0 36800 17500">
 <path fill="rgb(255,255,255)" stroke="none" d="M 18354,17451 L -36,17451 -36,0 36743,0 36743,17451 18354,17451 Z"/>
 <path fill="none" stroke="rgb(179,179,179)" stroke-linejoin="round" d="M 14129,16009 L 1585,16009 1585,2523 26673,2523 26673,16009 14129,16009 Z"/>
 <path fill="none" stroke="rgb(179,179,179)" stroke-linejoin="round" d="M 26673,16008 L 1585,16008"/>
 <path fill="none" stroke="rgb(179,179,179)" stroke-linejoin="round" d="M 26673,14322 L 1585,14322"/>
 <path fill="none" stroke="rgb(179,179,179)" stroke-linejoin="round" d="M 26673,12636 L 1585,12636"/>
 <path fill="none" stroke="rgb(179,179,179)" stroke-linejoin="round" d="M 26673,10950 L 1585,10950"/>
 <path fill="none" stroke="rgb(179,179,179)" stroke-linejoin="round" d="M 26673,9264 L 1585,9264"/>
 <path fill="none" stroke="rgb(179,179,179)" stroke-linejoin="round" d="M 26673,7579 L 1585,7579"/>
 <path fill="none" stroke="rgb(179,179,179)" stroke-linejoin="round" d="M 26673,5893 L 1585,5893"/>
 <path fill="none" stroke="rgb(179,179,179)" stroke-linejoin="round" d="M 26673,4207 L 1585,4207"/>
 <path fill="none" stroke="rgb(179,179,179)" stroke-linejoin="round" d="M 26673,2522 L 1585,2522"/>
 <path fill="none" stroke="rgb(179,179,179)" stroke-linejoin="round" d="M 1585,16158 L 1585,16008"/>
 <path fill="none" stroke="rgb(179,179,179)" stroke-linejoin="round" d="M 1585,16158 L 1585,16008"/>
 <path fill="none" stroke="rgb(179,179,179)" stroke-linejoin="round" d="M 3153,16158 L 3153,16008"/>
 <path fill="none" stroke="rgb(179,179,179)" stroke-linejoin="round" d="M 3153,16158 L 3153,16008"/>
 <path fill="none" stroke="rgb(179,179,179)" stroke-linejoin="round" d="M 4721,16158 L 4721,16008"/>
 <path fill="none" stroke="rgb(179,179,179)" stroke-linejoin="round" d="M 4721,16158 L 4721,16008"/>
 <path fill="none" stroke="rgb(179,179,179)" stroke-linejoin="round" d="M 6289,16158 L 6289,16008"/>
 <path fill="none" stroke="rgb(179,179,179)" stroke-linejoin="round" d="M 6289,16158 L 6289,16008"/>
 <path fill="none" stroke="rgb(179,179,179)" stroke-linejoin="round" d="M 7857,16158 L 7857,16008"/>
 <path fill="none" stroke="rgb(179,179,179)" stroke-linejoin="round" d="M 7857,16158 L 7857,16008"/>
 <path fill="none" stroke="rgb(179,179,179)" stroke-linejoin="round" d="M 9425,16158 L 9425,16008"/>
 <path fill="none" stroke="rgb(179,179,179)" stroke-linejoin="round" d="M 9425,16158 L 9425,16008"/>
 <path fill="none" stroke="rgb(179,179,179)" stroke-linejoin="round" d="M 10993,16158 L 10993,16008"/>
 <path fill="none" stroke="rgb(179,179,179)" stroke-linejoin="round" d="M 10993,16158 L 10993,16008"/>
 <path fill="none" stroke="rgb(179,179,179)" stroke-linejoin="round" d="M 12561,16158 L 12561,16008"/>
 <path fill="none" stroke="rgb(179,179,179)" stroke-linejoin="round" d="M 12561,16158 L 12561,16008"/>
 <path fill="none" stroke="rgb(179,179,179)" stroke-linejoin="round" d="M 14129,16158 L 14129,16008"/>
 <path fill="none" stroke="rgb(179,179,179)" stroke-linejoin="round" d="M 14129,16158 L 14129,16008"/>
 <path fill="none" stroke="rgb(179,179,179)" stroke-linejoin="round" d="M 15697,16158 L 15697,16008"/>
 <path fill="none" stroke="rgb(179,179,179)" stroke-linejoin="round" d="M 15697,16158 L 15697,16008"/>
 <path fill="none" stroke="rgb(179,179,179)" stroke-linejoin="round" d="M 17265,16158 L 17265,16008"/>
 <path fill="none" stroke="rgb(179,179,179)" stroke-linejoin="round" d="M 17265,16158 L 17265,16008"/>
 <path fill="none" stroke="rgb(179,179,179)" stroke-linejoin="round" d="M 18832,16158 L 18832,16008"/>
 <path fill="none" stroke="rgb(179,179,179)" stroke-linejoin="round" d="M 18832,16158 L 18832,16008"/>
 <path fill="none" stroke="rgb(179,179,179)" stroke-linejoin="round" d="M 20400,16158 L 20400,16008"/>
 <path fill="none" stroke="rgb(179,179,179)" stroke-linejoin="round" d="M 20400,16158 L 20400,16008"/>
 <path fill="none" stroke="rgb(179,179,179)" stroke-linejoin="round" d="M 21968,16158 L 21968,16008"/>
 <path fill="none" stroke="rgb(179,179,179)" stroke-linejoin="round" d="M 21968,16158 L 21968,16008"/>
 <path fill="none" stroke="rgb(179,179,179)" stroke-linejoin="round" d="M 23536,16158 L 23536,16008"/>
 <path fill="none" stroke="rgb(179,179,179)" stroke-linejoin="round" d="M 23536,16158 L 23536,16008"/>
 <path fill="none" stroke="rgb(179,179,179)" stroke-linejoin="round" d="M 25104,16158 L 25104,16008"/>
 <path fill="none" stroke="rgb(179,179,179)" stroke-linejoin="round" d="M 25104,16158 L 25104,16008"/>
 <path fill="none" stroke="rgb(179,179,179)" stroke-linejoin="round" d="M 26673,16158 L 26673,16008"/>
 <path fill="none" stroke="rgb(179,179,179)" stroke-linejoin="round" d="M 26673,16158 L 26673,16008"/>
 <path fill="none" stroke="rgb(179,179,179)" stroke-linejoin="round" d="M 1585,16008 L 26673,16008"/>
 <path fill="none" stroke="rgb(179,179,179)" stroke-linejoin="round" d="M 1435,16008 L 1585,16008"/>
 <path fill="none" stroke="rgb(179,179,179)" stroke-linejoin="round" d="M 1435,16008 L 1585,16008"/>
 <path fill="none" stroke="rgb(179,179,179)" stroke-linejoin="round" d="M 1435,14322 L 1585,14322"/>
 <path fill="none" stroke="rgb(179,179,179)" stroke-linejoin="round" d="M 1435,14322 L 1585,14322"/>
 <path fill="none" stroke="rgb(179,179,179)" stroke-linejoin="round" d="M 1435,12636 L 1585,12636"/>
 <path fill="none" stroke="rgb(179,179,179)" stroke-linejoin="round" d="M 1435,12636 L 1585,12636"/>
 <path fill="none" stroke="rgb(179,179,179)" stroke-linejoin="round" d="M 1435,10950 L 1585,10950"/>
 <path fill="none" stroke="rgb(179,179,179)" stroke-linejoin="round" d="M 1435,10950 L 1585,10950"/>
 <path fill="none" stroke="rgb(179,179,179)" stroke-linejoin="round" d="M 1435,9264 L 1585,9264"/>
 <path fill="none" stroke="rgb(179,179,179)" stroke-linejoin="round" d="M 1435,9264 L 1585,9264"/>
 <path fill="none" stroke="rgb(179,179,179)" stroke-linejoin="round" d="M 1435,7579 L 1585,7579"/>
 <path fill="none" stroke="rgb(179,179,179)" stroke-linejoin="round" d="M 1435,7579 L 1585,7579"/>
 <path fill="none" stroke="rgb(179,179,179)" stroke-linejoin="round" d="M 1435,5893 L 1585,5893"/>
 <path fill="none" stroke="rgb(179,179,179)" stroke-linejoin="round" d="M 1435,5893 L 1585,5893"/>
 <path fill="none" stroke="rgb(179,179,179)" stroke-linejoin="round" d="M 1435,4207 L 1585,4207"/>
 <path fill="none" stroke="rgb(179,179,179)" stroke-linejoin="round" d="M 1435,4207 L 1585,4207"/>
 <path fill="none" stroke="rgb(179,179,179)" stroke-linejoin="round" d="M 1435,2522 L 1585,2522"/>
 <path fill="none" stroke="rgb(179,179,179)" stroke-linejoin="round" d="M 1435,2522 L 1585,2522"/>
 <path fill="none" stroke="rgb(179,179,179)" stroke-linejoin="round" d="M 1585,16008 L 1585,2522"/>
 <path fill="none" stroke="rgb(179,179,179)" stroke-linejoin="round" d="M 26823,16008 L 26673,16008"/>
 <path fill="none" stroke="rgb(179,179,179)" stroke-linejoin="round" d="M 26823,16008 L 26673,16008"/>
 <path fill="none" stroke="rgb(179,179,179)" stroke-linejoin="round" d="M 26823,14659 L 26673,14659"/>
 <path fill="none" stroke="rgb(179,179,179)" stroke-linejoin="round" d="M 26823,14659 L 26673,14659"/>
 <path fill="none" stroke="rgb(179,179,179)" stroke-linejoin="round" d="M 26823,13310 L 26673,13310"/>
 <path fill="none" stroke="rgb(179,179,179)" stroke-linejoin="round" d="M 26823,13310 L 26673,13310"/>
 <path fill="none" stroke="rgb(179,179,179)" stroke-linejoin="round" d="M 26823,11961 L 26673,11961"/>
 <path fill="none" stroke="rgb(179,179,179)" stroke-linejoin="round" d="M 26823,11961 L 26673,11961"/>
 <path fill="none" stroke="rgb(179,179,179)" stroke-linejoin="round" d="M 26823,10613 L 26673,10613"/>
 <path fill="none" stroke="rgb(179,179,179)" stroke-linejoin="round" d="M 26823,10613 L 26673,10613"/>
 <path fill="none" stroke="rgb(179,179,179)" stroke-linejoin="round" d="M 26823,9264 L 26673,9264"/>
 <path fill="none" stroke="rgb(179,179,179)" stroke-linejoin="round" d="M 26823,9264 L 26673,9264"/>
 <path fill="none" stroke="rgb(179,179,179)" stroke-linejoin="round" d="M 26823,7916 L 26673,7916"/>
 <path fill="none" stroke="rgb(179,179,179)" stroke-linejoin="round" d="M 26823,7916 L 26673,7916"/>
 <path fill="none" stroke="rgb(179,179,179)" stroke-linejoin="round" d="M 26823,6568 L 26673,6568"/>
 <path fill="none" stroke="rgb(179,179,179)" stroke-linejoin="round" d="M 26823,6568 L 26673,6568"/>
 <path fill="none" stroke="rgb(179,179,179)" stroke-linejoin="round" d="M 26823,5219 L 26673,5219"/>
 <path fill="none" stroke="rgb(179,179,179)" stroke-linejoin="round" d="M 26823,5219 L 26673,5219"/>
 <path fill="none" stroke="rgb(179,179,179)" stroke-linejoin="round" d="M 26823,3870 L 26673,3870"/>
 <path fill="none" stroke="rgb(179,179,179)" stroke-linejoin="round" d="M 26823,3870 L 26673,3870"/>
 <path fill="none" stroke="rgb(179,179,179)" stroke-linejoin="round" d="M 26823,2522 L 26673,2522"/>
 <path fill="none" stroke="rgb(179,179,179)" stroke-linejoin="round" d="M 26823,2522 L 26673,2522"/>
 <path fill="none" stroke="rgb(179,179,179)" stroke-linejoin="round" d="M 26673,16008 L 26673,2522"/>
 <path fill="rgb(0,69,134)" stroke="none" d="M 25366,16008 L 25888,16008 25888,6470 25366,6470 25366,16008 Z"/>
 <path fill="rgb(0,69,134)" stroke="none" d="M 23798,16008 L 24320,16008 24320,8784 23798,8784 23798,16008 Z"/>
 <path fill="rgb(0,69,134)" stroke="none" d="M 22230,16008 L 22752,16008 22752,8079 22230,8079 22230,16008 Z"/>
 <path fill="rgb(0,69,134)" stroke="none" d="M 20662,16008 L 21184,16008 21184,8597 20662,8597 20662,16008 Z"/>
 <path fill="rgb(0,69,134)" stroke="none" d="M 19094,16008 L 19616,16008 19616,8910 19094,8910 19094,16008 Z"/>
 <path fill="rgb(0,69,134)" stroke="none" d="M 17526,16008 L 18049,16008 18049,4286 17526,4286 17526,16008 Z"/>
 <path fill="rgb(0,69,134)" stroke="none" d="M 15958,16008 L 16481,16008 16481,3176 15958,3176 15958,16008 Z"/>
 <path fill="rgb(0,69,134)" stroke="none" d="M 14390,16008 L 14913,16008 14913,4148 14390,4148 14390,16008 Z"/>
 <path fill="rgb(0,69,134)" stroke="none" d="M 12822,16008 L 13345,16008 13345,10723 12822,10723 12822,16008 Z"/>
 <path fill="rgb(0,69,134)" stroke="none" d="M 11254,16008 L 11777,16008 11777,10948 11254,10948 11254,16008 Z"/>
 <path fill="rgb(0,69,134)" stroke="none" d="M 9686,16008 L 10209,16008 10209,11813 9686,11813 9686,16008 Z"/>
 <path fill="rgb(0,69,134)" stroke="none" d="M 8118,16008 L 8641,16008 8641,12642 8118,12642 8118,16008 Z"/>
 <path fill="rgb(0,69,134)" stroke="none" d="M 6550,16008 L 7073,16008 7073,10946 6550,10946 6550,16008 Z"/>
 <path fill="rgb(0,69,134)" stroke="none" d="M 4982,16008 L 5505,16008 5505,10540 4982,10540 4982,16008 Z"/>
 <path fill="rgb(0,69,134)" stroke="none" d="M 3414,16008 L 3937,16008 3937,9710 3414,9710 3414,16008 Z"/>
 <path fill="rgb(0,69,134)" stroke="none" d="M 1846,16008 L 2369,16008 2369,7964 1846,7964 1846,16008 Z"/>
 <path fill="rgb(255,66,14)" stroke="none" d="M 25888,16008 L 26411,16008 26411,4828 25888,4828 25888,16008 Z"/>
 <path fill="rgb(255,66,14)" stroke="none" d="M 24320,16008 L 24843,16008 24843,6480 24320,6480 24320,16008 Z"/>
 <path fill="rgb(255,66,14)" stroke="none" d="M 22752,16008 L 23275,16008 23275,5313 22752,5313 22752,16008 Z"/>
 <path fill="rgb(255,66,14)" stroke="none" d="M 21184,16008 L 21707,16008 21707,5168 21184,5168 21184,16008 Z"/>
 <path fill="rgb(255,66,14)" stroke="none" d="M 19616,16008 L 20139,16008 20139,4390 19616,4390 19616,16008 Z"/>
 <path fill="rgb(255,66,14)" stroke="none" d="M 18049,16008 L 18571,16008 18571,3699 18049,3699 18049,16008 Z"/>
 <path fill="rgb(255,66,14)" stroke="none" d="M 16481,16008 L 17004,16008 17004,3998 16481,3998 16481,16008 Z"/>
 <path fill="rgb(255,66,14)" stroke="none" d="M 14913,16008 L 15436,16008 15436,3697 14913,3697 14913,16008 Z"/>
 <path fill="rgb(255,66,14)" stroke="none" d="M 13345,16008 L 13868,16008 13868,9575 13345,9575 13345,16008 Z"/>
 <path fill="rgb(255,66,14)" stroke="none" d="M 11777,16008 L 12300,16008 12300,10498 11777,10498 11777,16008 Z"/>
 <path fill="rgb(255,66,14)" stroke="none" d="M 10209,16008 L 10732,16008 10732,12497 10209,12497 10209,16008 Z"/>
 <path fill="rgb(255,66,14)" stroke="none" d="M 8641,16008 L 9163,16008 9163,10048 8641,10048 8641,16008 Z"/>
 <path fill="rgb(255,66,14)" stroke="none" d="M 7073,16008 L 7595,16008 7595,9183 7073,9183 7073,16008 Z"/>
 <path fill="rgb(255,66,14)" stroke="none" d="M 5505,16008 L 6027,16008 6027,10094 5505,10094 5505,16008 Z"/>
 <path fill="rgb(255,66,14)" stroke="none" d="M 3937,16008 L 4459,16008 4459,9628 3937,9628 3937,16008 Z"/>
 <text class="TextShape"><tspan class="TextParagraph" font-family="Arial, sans-serif" font-size="353px" font-weight="400"><tspan class="TextPosition" x="2276" y="16602"><tspan fill="rgb(0,0,0)" stroke="none">1</tspan></tspan></tspan></text>
 <text class="TextShape"><tspan class="TextParagraph" font-family="Arial, sans-serif" font-size="353px" font-weight="400"><tspan class="TextPosition" x="3844" y="16602"><tspan fill="rgb(0,0,0)" stroke="none">2</tspan></tspan></tspan></text>
 <text class="TextShape"><tspan class="TextParagraph" font-family="Arial, sans-serif" font-size="353px" font-weight="400"><tspan class="TextPosition" x="5412" y="16602"><tspan fill="rgb(0,0,0)" stroke="none">3</tspan></tspan></tspan></text>
 <text class="TextShape"><tspan class="TextParagraph" font-family="Arial, sans-serif" font-size="353px" font-weight="400"><tspan class="TextPosition" x="6980" y="16602"><tspan fill="rgb(0,0,0)" stroke="none">4</tspan></tspan></tspan></text>
 <text class="TextShape"><tspan class="TextParagraph" font-family="Arial, sans-serif" font-size="353px" font-weight="400"><tspan class="TextPosition" x="8548" y="16602"><tspan fill="rgb(0,0,0)" stroke="none">5</tspan></tspan></tspan></text>
 <text class="TextShape"><tspan class="TextParagraph" font-family="Arial, sans-serif" font-size="353px" font-weight="400"><tspan class="TextPosition" x="10116" y="16602"><tspan fill="rgb(0,0,0)" stroke="none">6</tspan></tspan></tspan></text>
 <text class="TextShape"><tspan class="TextParagraph" font-family="Arial, sans-serif" font-size="353px" font-weight="400"><tspan class="TextPosition" x="11684" y="16602"><tspan fill="rgb(0,0,0)" stroke="none">7</tspan></tspan></tspan></text>
 <text class="TextShape"><tspan class="TextParagraph" font-family="Arial, sans-serif" font-size="353px" font-weight="400"><tspan class="TextPosition" x="13252" y="16602"><tspan fill="rgb(0,0,0)" stroke="none">8</tspan></tspan></tspan></text>
 <text class="TextShape"><tspan class="TextParagraph" font-family="Arial, sans-serif" font-size="353px" font-weight="400"><tspan class="TextPosition" x="14820" y="16602"><tspan fill="rgb(0,0,0)" stroke="none">9</tspan></tspan></tspan></text>
 <text class="TextShape"><tspan class="TextParagraph" font-family="Arial, sans-serif" font-size="353px" font-weight="400"><tspan class="TextPosition" x="16296" y="16602"><tspan fill="rgb(0,0,0)" stroke="none">10</tspan></tspan></tspan></text>
 <text class="TextShape"><tspan class="TextParagraph" font-family="Arial, sans-serif" font-size="353px" font-weight="400"><tspan class="TextPosition" x="17864" y="16602"><tspan fill="rgb(0,0,0)" stroke="none">11</tspan></tspan></tspan></text>
 <text class="TextShape"><tspan class="TextParagraph" font-family="Arial, sans-serif" font-size="353px" font-weight="400"><tspan class="TextPosition" x="19432" y="16602"><tspan fill="rgb(0,0,0)" stroke="none">12</tspan></tspan></tspan></text>
 <text class="TextShape"><tspan class="TextParagraph" font-family="Arial, sans-serif" font-size="353px" font-weight="400"><tspan class="TextPosition" x="21000" y="16602"><tspan fill="rgb(0,0,0)" stroke="none">13</tspan></tspan></tspan></text>
 <text class="TextShape"><tspan class="TextParagraph" font-family="Arial, sans-serif" font-size="353px" font-weight="400"><tspan class="TextPosition" x="22568" y="16602"><tspan fill="rgb(0,0,0)" stroke="none">14</tspan></tspan></tspan></text>
 <text class="TextShape"><tspan class="TextParagraph" font-family="Arial, sans-serif" font-size="353px" font-weight="400"><tspan class="TextPosition" x="24136" y="16602"><tspan fill="rgb(0,0,0)" stroke="none">15</tspan></tspan></tspan></text>
 <text class="TextShape"><tspan class="TextParagraph" font-family="Arial, sans-serif" font-size="353px" font-weight="400"><tspan class="TextPosition" x="25704" y="16602"><tspan fill="rgb(0,0,0)" stroke="none">16</tspan></tspan></tspan></text>
 <text class="TextShape"><tspan class="TextParagraph" font-family="Arial, sans-serif" font-size="353px" font-weight="400"><tspan class="TextPosition" x="1150" y="16142"><tspan fill="rgb(0,0,0)" stroke="none">0</tspan></tspan></tspan></text>
 <text class="TextShape"><tspan class="TextParagraph" font-family="Arial, sans-serif" font-size="353px" font-weight="400"><tspan class="TextPosition" x="1150" y="14456"><tspan fill="rgb(0,0,0)" stroke="none">1</tspan></tspan></tspan></text>
 <text class="TextShape"><tspan class="TextParagraph" font-family="Arial, sans-serif" font-size="353px" font-weight="400"><tspan class="TextPosition" x="1150" y="12770"><tspan fill="rgb(0,0,0)" stroke="none">2</tspan></tspan></tspan></text>
 <text class="TextShape"><tspan class="TextParagraph" font-family="Arial, sans-serif" font-size="353px" font-weight="400"><tspan class="TextPosition" x="1150" y="11084"><tspan fill="rgb(0,0,0)" stroke="none">3</tspan></tspan></tspan></text>
 <text class="TextShape"><tspan class="TextParagraph" font-family="Arial, sans-serif" font-size="353px" font-weight="400"><tspan class="TextPosition" x="1150" y="9398"><tspan fill="rgb(0,0,0)" stroke="none">4</tspan></tspan></tspan></text>
 <text class="TextShape"><tspan class="TextParagraph" font-family="Arial, sans-serif" font-size="353px" font-weight="400"><tspan class="TextPosition" x="1150" y="7712"><tspan fill="rgb(0,0,0)" stroke="none">5</tspan></tspan></tspan></text>
 <text class="TextShape"><tspan class="TextParagraph" font-family="Arial, sans-serif" font-size="353px" font-weight="400"><tspan class="TextPosition" x="1150" y="6026"><tspan fill="rgb(0,0,0)" stroke="none">6</tspan></tspan></tspan></text>
 <text class="TextShape"><tspan class="TextParagraph" font-family="Arial, sans-serif" font-size="353px" font-weight="400"><tspan class="TextPosition" x="1150" y="4340"><tspan fill="rgb(0,0,0)" stroke="none">7</tspan></tspan></tspan></text>
 <text class="TextShape"><tspan class="TextParagraph" font-family="Arial, sans-serif" font-size="353px" font-weight="400"><tspan class="TextPosition" x="1150" y="2655"><tspan fill="rgb(0,0,0)" stroke="none">8</tspan></tspan></tspan></text>
 <text class="TextShape"><tspan class="TextParagraph" font-family="Arial, sans-serif" font-size="353px" font-weight="400"><tspan class="TextPosition" x="26923" y="16142"><tspan fill="rgb(0,0,0)" stroke="none">0</tspan></tspan></tspan></text>
 <text class="TextShape"><tspan class="TextParagraph" font-family="Arial, sans-serif" font-size="353px" font-weight="400"><tspan class="TextPosition" x="26923" y="14793"><tspan fill="rgb(0,0,0)" stroke="none">500000</tspan></tspan></tspan></text>
 <text class="TextShape"><tspan class="TextParagraph" font-family="Arial, sans-serif" font-size="353px" font-weight="400"><tspan class="TextPosition" x="26923" y="13444"><tspan fill="rgb(0,0,0)" stroke="none">1000000</tspan></tspan></tspan></text>
 <text class="TextShape"><tspan class="TextParagraph" font-family="Arial, sans-serif" font-size="353px" font-weight="400"><tspan class="TextPosition" x="26923" y="12095"><tspan fill="rgb(0,0,0)" stroke="none">1500000</tspan></tspan></tspan></text>
 <text class="TextShape"><tspan class="TextParagraph" font-family="Arial, sans-serif" font-size="353px" font-weight="400"><tspan class="TextPosition" x="26923" y="10747"><tspan fill="rgb(0,0,0)" stroke="none">2000000</tspan></tspan></tspan></text>
 <text class="TextShape"><tspan class="TextParagraph" font-family="Arial, sans-serif" font-size="353px" font-weight="400"><tspan class="TextPosition" x="26923" y="9398"><tspan fill="rgb(0,0,0)" stroke="none">2500000</tspan></tspan></tspan></text>
 <text class="TextShape"><tspan class="TextParagraph" font-family="Arial, sans-serif" font-size="353px" font-weight="400"><tspan class="TextPosition" x="26923" y="8049"><tspan fill="rgb(0,0,0)" stroke="none">3000000</tspan></tspan></tspan></text>
 <text class="TextShape"><tspan class="TextParagraph" font-family="Arial, sans-serif" font-size="353px" font-weight="400"><tspan class="TextPosition" x="26923" y="6701"><tspan fill="rgb(0,0,0)" stroke="none">3500000</tspan></tspan></tspan></text>
 <text class="TextShape"><tspan class="TextParagraph" font-family="Arial, sans-serif" font-size="353px" font-weight="400"><tspan class="TextPosition" x="26923" y="5352"><tspan fill="rgb(0,0,0)" stroke="none">4000000</tspan></tspan></tspan></text>
 <text class="TextShape"><tspan class="TextParagraph" font-family="Arial, sans-serif" font-size="353px" font-weight="400"><tspan class="TextPosition" x="26923" y="4003"><tspan fill="rgb(0,0,0)" stroke="none">4500000</tspan></tspan></tspan></text>
 <text class="TextShape"><tspan class="TextParagraph" font-family="Arial, sans-serif" font-size="353px" font-weight="400"><tspan class="TextPosition" x="26923" y="2655"><tspan fill="rgb(0,0,0)" stroke="none">5000000</tspan></tspan></tspan></text>
 <text class="TextShape"><tspan class="TextParagraph" font-family="Arial, sans-serif" font-size="459px" font-weight="400"><tspan class="TextPosition" x="16727" y="1020"><tspan fill="rgb(0,0,0)" stroke="none">2^4 factorial test </tspan></tspan></tspan></text>
 <path fill="rgb(255,66,14)" stroke="none" d="M 2369,16008 L 2891,16008 2891,8304 2369,8304 2369,16008 Z"/>
 <path fill="rgb(0,69,134)" stroke="none" d="M 29913,8569 L 29807,8569 29807,8358 30018,8358 30018,8569 29913,8569 Z"/>
 <text class="TextShape"><tspan class="TextParagraph" font-family="Arial, sans-serif" font-size="353px" font-weight="400"><tspan class="TextPosition" x="30118" y="8596"><tspan fill="rgb(0,0,0)" stroke="none">Experiments 1 to 16 Response time [ms]</tspan></tspan></tspan></text>
 <text class="TextShape"><tspan class="TextParagraph" font-family="Arial, sans-serif" font-size="353px" font-weight="400"><tspan class="TextPosition" x="30118" y="9119"><tspan fill="rgb(0,0,0)" stroke="none"># of processed requests</tspan></tspan></tspan></text>
 <path fill="rgb(255,66,14)" stroke="none" d="M 29913,9092 L 29807,9092 29807,8881 30018,8881 30018,9092 29913,9092 Z"/>
</svg>