<?xml version="1.0" encoding="UTF-8"?>
<!DOCTYPE svg PUBLIC "-//W3C//DTD SVG 1.1//EN" "http://www.w3.org/Graphics/SVG/1.1/DTD/svg11.dtd">
<svg version="1.2" width="297mm" height="210mm" viewBox="0 0 29700 21000" preserveAspectRatio="xMidYMid" fill-rule="evenodd" clip-path="url(#presentation_clip_path)" stroke-width="28.222" stroke-linejoin="round" xmlns="http://www.w3.org/2000/svg" xmlns:ooo="http://xml.openoffice.org/svg/export" xmlns:xlink="http://www.w3.org/1999/xlink" xml:space="preserve">
 <defs class="ClipPathGroup">
  <clipPath id="presentation_clip_path" clipPathUnits="userSpaceOnUse">
   <rect x="0" y="0" width="29700" height="21000"/>
  </clipPath>
 </defs>
 <defs class="TextShapeIndex">
  <g ooo:slide="id1" ooo:id-list="id3 id4 id5 id6 id7 id8 id9 id10 id11 id12 id13"/>
 </defs>
 <defs class="EmbeddedBulletChars">
  <g id="bullet-char-template(57356)" transform="scale(0.00048828125,-0.00048828125)">
   <path d="M 580,1141 L 1163,571 580,0 -4,571 580,1141 Z"/>
  </g>
  <g id="bullet-char-template(57354)" transform="scale(0.00048828125,-0.00048828125)">
   <path d="M 8,1128 L 1137,1128 1137,0 8,0 8,1128 Z"/>
  </g>
  <g id="bullet-char-template(10146)" transform="scale(0.00048828125,-0.00048828125)">
   <path d="M 174,0 L 602,739 174,1481 1456,739 174,0 Z M 1358,739 L 309,1346 659,739 1358,739 Z"/>
  </g>
  <g id="bullet-char-template(10132)" transform="scale(0.00048828125,-0.00048828125)">
   <path d="M 2015,739 L 1276,0 717,0 1260,543 174,543 174,936 1260,936 717,1481 1274,1481 2015,739 Z"/>
  </g>
  <g id="bullet-char-template(10007)" transform="scale(0.00048828125,-0.00048828125)">
   <path d="M 0,-2 C -7,14 -16,27 -25,37 L 356,567 C 262,823 215,952 215,954 215,979 228,992 255,992 264,992 276,990 289,987 310,991 331,999 354,1012 L 381,999 492,748 772,1049 836,1024 860,1049 C 881,1039 901,1025 922,1006 886,937 835,863 770,784 769,783 710,716 594,584 L 774,223 C 774,196 753,168 711,139 L 727,119 C 717,90 699,76 672,76 641,76 570,178 457,381 L 164,-76 C 142,-110 111,-127 72,-127 30,-127 9,-110 8,-76 1,-67 -2,-52 -2,-32 -2,-23 -1,-13 0,-2 Z"/>
  </g>
  <g id="bullet-char-template(10004)" transform="scale(0.00048828125,-0.00048828125)">
   <path d="M 285,-33 C 182,-33 111,30 74,156 52,228 41,333 41,471 41,549 55,616 82,672 116,743 169,778 240,778 293,778 328,747 346,684 L 369,508 C 377,444 397,411 428,410 L 1163,1116 C 1174,1127 1196,1133 1229,1133 1271,1133 1292,1118 1292,1087 L 1292,965 C 1292,929 1282,901 1262,881 L 442,47 C 390,-6 338,-33 285,-33 Z"/>
  </g>
  <g id="bullet-char-template(9679)" transform="scale(0.00048828125,-0.00048828125)">
   <path d="M 813,0 C 632,0 489,54 383,161 276,268 223,411 223,592 223,773 276,916 383,1023 489,1130 632,1184 813,1184 992,1184 1136,1130 1245,1023 1353,916 1407,772 1407,592 1407,412 1353,268 1245,161 1136,54 992,0 813,0 Z"/>
  </g>
  <g id="bullet-char-template(8226)" transform="scale(0.00048828125,-0.00048828125)">
   <path d="M 346,457 C 273,457 209,483 155,535 101,586 74,649 74,723 74,796 101,859 155,911 209,963 273,989 346,989 419,989 480,963 531,910 582,859 608,796 608,723 608,648 583,586 532,535 482,483 420,457 346,457 Z"/>
  </g>
  <g id="bullet-char-template(8211)" transform="scale(0.00048828125,-0.00048828125)">
   <path d="M -4,459 L 1135,459 1135,606 -4,606 -4,459 Z"/>
  </g>
 </defs>
 <defs class="TextEmbeddedBitmaps"/>
 <g>
  <g id="id2" class="Master_Slide">
   <g id="bg-id2" class="Background"/>
   <g id="bo-id2" class="BackgroundObjects"/>
  </g>
 </g>
 <g class="SlideGroup">
  <g>
   <g id="id1" class="Slide" clip-path="url(#presentation_clip_path)">
    <g class="Page">
     <g class="Group">
      <g class="com.sun.star.drawing.CustomShape">
       <g id="id3">
        <path fill="rgb(238,238,238)" stroke="none" d="M 22718,18000 L 18836,18000 18836,3600 26600,3600 26600,18000 22718,18000 Z"/>
        <path fill="none" stroke="rgb(52,101,175)" d="M 22718,18000 L 18836,18000 18836,3600 26600,3600 26600,18000 22718,18000 Z"/>
        <text class="TextShape"><tspan class="TextParagraph" font-family="Arial, sans-serif" font-size="635px" font-weight="400"><tspan class="TextPosition" x="21520" y="4297"><tspan fill="rgb(0,0,0)" stroke="none">Data tier</tspan></tspan></tspan></text>
       </g>
      </g>
      <g class="com.sun.star.drawing.CustomShape">
       <g id="id4">
        <path fill="rgb(238,238,238)" stroke="none" d="M 7282,18000 L 3400,18000 3400,3600 11164,3600 11164,18000 7282,18000 Z"/>
        <path fill="none" stroke="rgb(52,101,175)" d="M 7282,18000 L 3400,18000 3400,3600 11164,3600 11164,18000 7282,18000 Z"/>
        <text class="TextShape"><tspan class="TextParagraph" font-family="Arial, sans-serif" font-size="635px" font-weight="400"><tspan class="TextPosition" x="4975" y="4297"><tspan fill="rgb(0,0,0)" stroke="none">Presentation tier</tspan></tspan></tspan></text>
       </g>
      </g>
      <g class="com.sun.star.drawing.CustomShape">
       <g id="id5">
        <path fill="rgb(221,221,221)" stroke="none" d="M 15046,18000 L 11164,18000 11164,3600 18928,3600 18928,18000 15046,18000 Z"/>
        <path fill="none" stroke="rgb(52,101,175)" d="M 15046,18000 L 11164,18000 11164,3600 18928,3600 18928,18000 15046,18000 Z"/>
        <text class="TextShape"><tspan class="TextParagraph" font-family="Arial, sans-serif" font-size="635px" font-weight="400"><tspan class="TextPosition" x="13675" y="4297"><tspan fill="rgb(0,0,0)" stroke="none">Logic hier</tspan></tspan></tspan></text>
       </g>
      </g>
     </g>
     <g class="com.sun.star.drawing.CustomShape">
      <g id="id6">
       <path fill="rgb(230,230,255)" stroke="none" d="M 8350,14200 L 6800,14200 6800,11500 9900,11500 9900,14200 8350,14200 Z"/>
       <path fill="none" stroke="rgb(52,101,175)" d="M 8350,14200 L 6800,14200 6800,11500 9900,11500 9900,14200 8350,14200 Z"/>
       <text class="TextShape"><tspan class="TextParagraph" font-family="Arial, sans-serif" font-size="635px" font-weight="400"><tspan class="TextPosition" x="7542" y="13066"><tspan fill="rgb(0,0,0)" stroke="none">Client</tspan></tspan></tspan></text>
      </g>
     </g>
     <g class="com.sun.star.drawing.CustomShape">
      <g id="id7">
       <path fill="rgb(230,230,255)" stroke="none" d="M 7850,13800 L 6300,13800 6300,11100 9400,11100 9400,13800 7850,13800 Z"/>
       <path fill="none" stroke="rgb(52,101,175)" d="M 7850,13800 L 6300,13800 6300,11100 9400,11100 9400,13800 7850,13800 Z"/>
       <text class="TextShape"><tspan class="TextParagraph" font-family="Arial, sans-serif" font-size="635px" font-weight="400"><tspan class="TextPosition" x="7042" y="12666"><tspan fill="rgb(0,0,0)" stroke="none">Client</tspan></tspan></tspan></text>
      </g>
     </g>
     <g class="com.sun.star.drawing.CustomShape">
      <g id="id8">
       <path fill="rgb(230,230,255)" stroke="none" d="M 7250,13200 L 5700,13200 5700,10500 8800,10500 8800,13200 7250,13200 Z"/>
       <path fill="none" stroke="rgb(52,101,175)" d="M 7250,13200 L 5700,13200 5700,10500 8800,10500 8800,13200 7250,13200 Z"/>
       <text class="TextShape"><tspan class="TextParagraph" font-family="Arial, sans-serif" font-size="635px" font-weight="400"><tspan class="TextPosition" x="6442" y="12066"><tspan fill="rgb(0,0,0)" stroke="none">Client</tspan></tspan></tspan></text>
      </g>
     </g>
     <g class="com.sun.star.drawing.CustomShape">
      <g id="id9">
       <path fill="rgb(255,204,153)" stroke="none" d="M 15250,7600 L 13700,7600 13700,4900 16800,4900 16800,7600 15250,7600 Z"/>
       <path fill="none" stroke="rgb(52,101,175)" d="M 15250,7600 L 13700,7600 13700,4900 16800,4900 16800,7600 15250,7600 Z"/>
       <text class="TextShape"><tspan class="TextParagraph" font-family="Arial, sans-serif" font-size="635px" font-weight="400"><tspan class="TextPosition" x="14158" y="6466"><tspan fill="rgb(0,0,0)" stroke="none">Agent 1</tspan></tspan></tspan></text>
      </g>
     </g>
     <g class="com.sun.star.drawing.CustomShape">
      <g id="id10">
       <path fill="rgb(255,204,153)" stroke="none" d="M 15250,10700 L 13700,10700 13700,8000 16800,8000 16800,10700 15250,10700 Z"/>
       <path fill="none" stroke="rgb(52,101,175)" d="M 15250,10700 L 13700,10700 13700,8000 16800,8000 16800,10700 15250,10700 Z"/>
       <text class="TextShape"><tspan class="TextParagraph" font-family="Arial, sans-serif" font-size="635px" font-weight="400"><tspan class="TextPosition" x="14158" y="9566"><tspan fill="rgb(0,0,0)" stroke="none">Agent 2</tspan></tspan></tspan></text>
      </g>
     </g>
     <g class="com.sun.star.drawing.CustomShape">
      <g id="id11">
       <path fill="rgb(255,204,153)" stroke="none" d="M 15250,16900 L 13700,16900 13700,14200 16800,14200 16800,16900 15250,16900 Z"/>
       <path fill="none" stroke="rgb(52,101,175)" d="M 15250,16900 L 13700,16900 13700,14200 16800,14200 16800,16900 15250,16900 Z"/>
       <text class="TextShape"><tspan class="TextParagraph" font-family="Arial, sans-serif" font-size="635px" font-weight="400"><tspan class="TextPosition" x="14105" y="15766"><tspan fill="rgb(0,0,0)" stroke="none">Agent N</tspan></tspan></tspan></text>
      </g>
     </g>
     <g class="com.sun.star.drawing.CustomShape">
      <g id="id12">
       <path fill="rgb(255,204,153)" stroke="none" d="M 15250,13800 L 13700,13800 13700,11100 16800,11100 16800,13800 15250,13800 Z"/>
       <path fill="none" stroke="rgb(52,101,175)" d="M 15250,13800 L 13700,13800 13700,11100 16800,11100 16800,13800 15250,13800 Z"/>
       <text class="TextShape"><tspan class="TextParagraph" font-family="Arial, sans-serif" font-size="635px" font-weight="400"><tspan class="TextPosition" x="14984" y="12666"><tspan fill="rgb(0,0,0)" stroke="none">...</tspan></tspan></tspan></text>
      </g>
     </g>
     <g class="com.sun.star.drawing.CustomShape">
      <g id="id13">
       <path fill="rgb(238,238,238)" stroke="none" d="M 20200,9502 C 20200,9101 21275,8700 22350,8700 23425,8700 24501,9101 24501,9502 L 24501,12998 C 24501,13399 23425,13801 22350,13801 21275,13801 20200,13399 20200,12998 L 20200,9502 Z M 20200,8700 L 20200,8700 Z M 24501,13801 L 24501,13801 Z"/>
       <path fill="none" stroke="rgb(52,101,175)" d="M 20200,9502 C 20200,9101 21275,8700 22350,8700 23425,8700 24501,9101 24501,9502 L 24501,12998 C 24501,13399 23425,13801 22350,13801 21275,13801 20200,13399 20200,12998 L 20200,9502 Z"/>
       <path fill="none" stroke="rgb(52,101,175)" d="M 20200,8700 L 20200,8700 Z"/>
       <path fill="none" stroke="rgb(52,101,175)" d="M 24501,13801 L 24501,13801 Z"/>
       <path fill="rgb(238,238,238)" stroke="none" d="M 20200,9502 C 20200,9903 21275,10305 22350,10305 23425,10305 24501,9903 24501,9502 L 20200,9502 Z M 20200,8700 L 20200,8700 Z M 24501,13801 L 24501,13801 Z"/>
       <path fill="none" stroke="rgb(52,101,175)" d="M 20200,9502 C 20200,9903 21275,10305 22350,10305 23425,10305 24501,9903 24501,9502"/>
       <path fill="none" stroke="rgb(52,101,175)" d="M 20200,8700 L 20200,8700 Z"/>
       <path fill="none" stroke="rgb(52,101,175)" d="M 24501,13801 L 24501,13801 Z"/>
       <text class="TextShape"><tspan class="TextParagraph" font-family="Arial, sans-serif" font-size="635px" font-weight="400"><tspan class="TextPosition" x="20977" y="11868"><tspan fill="rgb(0,0,0)" stroke="none">postgress</tspan></tspan></tspan></text>
      </g>
     </g>
    </g>
   </g>
  </g>
 </g>
</svg>